HIERARCHY
ROOT Hips
{
	OFFSET -0.001795 -0.223333 0.028219
	CHANNELS 6 Xposition Yposition Zposition Zrotation Yrotation Xrotation 
	JOINT LeftUpLeg
	{
		OFFSET 0.069520 -0.091406 -0.006815
		CHANNELS 3 Zrotation Yrotation Xrotation
		JOINT LeftLeg
		{
			OFFSET 0.034277 -0.375199 -0.004496
			CHANNELS 3 Zrotation Yrotation Xrotation
			JOINT LeftFoot
			{
				OFFSET -0.013596 -0.397961 -0.043693
				CHANNELS 3 Zrotation Yrotation Xrotation
				JOINT LeftToe
				{
					OFFSET 0.026358 -0.055791 0.119288
					CHANNELS 3 Zrotation Yrotation Xrotation
					End Site
					{
						OFFSET 0.000000 0.000000 0.000000
					}
				}
			}
		}
	}
	JOINT RightUpLeg
	{
		OFFSET -0.067670 -0.090522 -0.004320
		CHANNELS 3 Zrotation Yrotation Xrotation
		JOINT RightLeg
		{
			OFFSET -0.038290 -0.382569 -0.008850
			CHANNELS 3 Zrotation Yrotation Xrotation
			JOINT RightFoot
			{
				OFFSET 0.015774 -0.398415 -0.042312
				CHANNELS 3 Zrotation Yrotation Xrotation
				JOINT RightToe
				{
					OFFSET -0.025372 -0.048144 0.123348
					CHANNELS 3 Zrotation Yrotation Xrotation
					End Site
					{
						OFFSET 0.000000 0.000000 0.000000
					}
				}
			}
		}
	}
	JOINT Spine
	{
		OFFSET -0.002533 0.108963 -0.026696
		CHANNELS 3 Zrotation Yrotation Xrotation
		JOINT Spine1
		{
			OFFSET 0.005487 0.135180 0.001092
			CHANNELS 3 Zrotation Yrotation Xrotation
			JOINT Spine2
			{
				OFFSET 0.001457 0.052922 0.025425
				CHANNELS 3 Zrotation Yrotation Xrotation
				JOINT Neck
				{
					OFFSET -0.002778 0.213870 -0.042857
					CHANNELS 3 Zrotation Yrotation Xrotation
					JOINT Head
					{
						OFFSET 0.005152 0.064970 0.051349
						CHANNELS 3 Zrotation Yrotation Xrotation
						End Site
						{
							OFFSET 0.000000 0.000000 0.000000
						}
					}
				}
				JOINT LeftShoulder
				{
					OFFSET 0.078845 0.121749 -0.034090
					CHANNELS 3 Zrotation Yrotation Xrotation
					JOINT LeftArm
					{
						OFFSET 0.090977 0.030469 -0.008868
						CHANNELS 3 Zrotation Yrotation Xrotation
						JOINT LeftForeArm
						{
							OFFSET 0.259612 -0.012772 -0.027456
							CHANNELS 3 Zrotation Yrotation Xrotation
							JOINT LeftHand
							{
								OFFSET 0.249234 0.008986 -0.001171
								CHANNELS 3 Zrotation Yrotation Xrotation
								End Site
								{
									OFFSET 0.000000 0.000000 0.000000
								}
							}
						}
					}
				}
				JOINT RightShoulder
				{
					OFFSET -0.081759 0.118833 -0.038615
					CHANNELS 3 Zrotation Yrotation Xrotation
					JOINT RightArm
					{
						OFFSET -0.096012 0.032551 -0.009143
						CHANNELS 3 Zrotation Yrotation Xrotation
						JOINT RightForeArm
						{
							OFFSET -0.253742 -0.013329 -0.021401
							CHANNELS 3 Zrotation Yrotation Xrotation
							JOINT RightHand
							{
								OFFSET -0.255298 0.007772 -0.005559
								CHANNELS 3 Zrotation Yrotation Xrotation
								End Site
								{
									OFFSET 0.000000 0.000000 0.000000
								}
							}
						}
					}
				}
			}
		}
	}
}
MOTION
Frames: 15
Frame Time: 0.050000
0.000000 0.936392 0.000000 -0.620255 -6.750001 -0.642633 4.811739 0.095504 1.289187 0.124102 -0.161097 5.057273 6.810404 14.858915 8.201310 0.000000 0.000000 0.000000 -5.741760 0.330829 -2.499406 1.426571 0.123610 7.460729 -2.528648 -9.260801 7.699291 0.000000 0.000000 0.000000 0.139416 0.020553 -0.498996 -2.660990 1.241507 -1.752661 1.025550 1.617335 10.978700 3.124994 -1.470247 -12.172798 0.000000 0.000000 0.000000 -22.779700 -8.988025 3.996984 -58.892237 -5.275236 -5.261548 -4.576795 -39.713958 3.769081 0.000000 0.000000 0.000000 10.602261 16.794990 6.357652 37.603866 34.220125 6.042055 176.623183 70.317060 179.948273 0.000000 0.000000 0.000000 
-0.000653 0.934617 -0.000222 -0.553128 -7.122678 -0.286147 4.490845 0.136485 1.973982 0.562193 -0.179221 3.282491 7.020012 15.204093 7.941214 0.000000 0.000000 0.000000 -6.194947 0.340420 -2.249349 2.099194 -0.019431 6.187387 -2.433403 -8.907858 7.150784 0.000000 0.000000 0.000000 -0.364517 0.057070 -1.342880 -2.874999 1.343084 -1.563633 1.811532 1.082738 11.295875 2.852706 -1.208389 -14.136815 0.000000 0.000000 0.000000 -22.687308 -7.762194 3.553471 -59.053571 -4.286527 -5.810818 -5.123612 -41.989921 4.360062 0.000000 0.000000 0.000000 9.391181 17.705130 6.545585 34.712769 38.176795 6.469304 -178.058908 68.298785 -172.707207 0.000000 0.000000 0.000000 
-0.000898 0.934822 -0.000453 -0.065394 -5.708087 -0.235372 4.032594 0.068204 1.052962 0.753994 -0.242226 4.214372 6.402533 14.157645 7.722206 0.000000 0.000000 0.000000 -6.582398 0.342436 -2.545573 2.098842 -0.008731 6.978801 -3.080167 -10.148461 7.216958 0.000000 0.000000 0.000000 -0.481155 0.063389 -1.527736 -2.808723 1.320233 -1.486312 1.009499 1.129463 10.302165 4.232528 -2.518937 -9.335829 0.000000 0.000000 0.000000 -23.128004 -8.735786 3.793427 -57.834005 -3.708296 -5.867123 -3.523323 -39.758030 3.340667 0.000000 0.000000 0.000000 10.932210 18.555962 7.201620 29.380362 38.634431 5.235064 -174.749639 65.241753 -166.501280 0.000000 0.000000 0.000000 
-0.001108 0.933757 -0.000673 0.023509 -5.602810 -0.617543 3.718791 0.075987 1.097400 1.189235 -0.334210 4.830139 6.428650 14.182357 7.348638 0.000000 0.000000 0.000000 -6.634132 0.336530 -2.562751 2.058588 0.021803 7.780203 -3.211290 -10.276638 6.768366 0.000000 0.000000 0.000000 -0.404941 0.075768 -1.847549 -3.334838 1.583527 -0.899199 1.314704 0.581324 10.209550 4.561623 -2.790409 -9.377831 0.000000 0.000000 0.000000 -22.344188 -8.971764 4.072475 -59.126571 -3.168012 -6.249674 -1.577196 -40.585428 2.776610 0.000000 0.000000 0.000000 9.174833 18.661351 7.007768 26.340035 41.235180 4.923414 -169.762220 63.094076 -158.216705 0.000000 0.000000 0.000000 
-0.001208 0.934126 -0.000898 0.095379 -5.386851 -0.946385 3.414487 0.060308 0.813803 1.631317 -0.448462 5.855525 6.361993 14.076142 7.417795 0.000000 0.000000 0.000000 -6.751274 0.314939 -2.179782 2.167743 0.000928 7.770357 -3.256424 -10.388119 6.883483 0.000000 0.000000 0.000000 -0.422305 0.063518 -1.565079 -3.160208 1.501863 -0.891833 1.028103 0.480341 9.989272 5.029395 -3.068920 -9.758259 0.000000 0.000000 0.000000 -22.380690 -9.701041 4.469758 -59.003300 -2.631551 -6.485889 -0.007813 -41.189748 2.220081 0.000000 0.000000 0.000000 7.966509 19.107188 7.110270 22.961153 42.582795 4.148656 -167.445999 61.728681 -153.823875 0.000000 0.000000 0.000000 
-0.001248 0.934135 -0.001189 -0.065283 -5.188249 -0.803085 3.635437 0.043050 0.604565 1.602825 -0.445347 5.882171 6.281325 13.934783 7.327914 0.000000 0.000000 0.000000 -6.631725 0.320197 -2.397319 2.314202 -0.020555 7.936579 -3.336674 -10.567313 6.981482 0.000000 0.000000 0.000000 -0.567284 0.071453 -1.790958 -3.012143 1.419131 -1.479780 1.209656 0.362707 10.623304 5.309498 -3.222312 -10.309062 0.000000 0.000000 0.000000 -22.355121 -9.502810 4.397801 -59.510025 -2.666079 -6.584354 1.038302 -41.502271 1.892977 0.000000 0.000000 0.000000 6.447486 19.480193 7.140199 20.889516 44.015658 3.653453 -160.936502 59.450677 -141.563734 0.000000 0.000000 0.000000 
-0.001222 0.934597 -0.001567 -0.066706 -4.922919 -0.747609 3.585693 0.009987 0.127286 1.732878 -0.493158 6.477809 6.173610 13.759485 7.414334 0.000000 0.000000 0.000000 -6.561103 0.321799 -2.544088 2.241823 -0.006429 8.128040 -3.431681 -10.800179 7.181834 0.000000 0.000000 0.000000 -0.741093 0.076528 -1.967811 -2.580264 1.218197 -1.472246 0.831227 0.346372 10.358190 5.867307 -3.499567 -11.001425 0.000000 0.000000 0.000000 -22.099107 -9.270273 4.183051 -60.516404 -2.527092 -6.718783 3.304760 -41.597192 1.043551 0.000000 0.000000 0.000000 6.080290 19.701066 7.221407 20.639937 46.349173 3.924958 -155.300990 57.920209 -130.816922 0.000000 0.000000 0.000000 
-0.001210 0.934817 -0.002041 -0.179505 -5.054265 -0.643893 3.795023 0.002570 0.002625 1.557427 -0.462346 6.499297 6.223081 13.845985 7.486215 0.000000 0.000000 0.000000 -6.696751 0.336334 -2.765586 2.686408 -0.075883 8.221365 -3.345794 -10.670662 7.312636 0.000000 0.000000 0.000000 -0.834297 0.081866 -2.124522 -2.428524 1.143204 -1.725504 0.927661 0.462150 10.461375 6.468465 -3.794420 -11.886281 0.000000 0.000000 0.000000 -22.285545 -9.039751 4.056294 -61.004417 -2.415071 -6.837873 4.040804 -42.698230 0.820311 0.000000 0.000000 0.000000 5.761208 19.776157 7.226876 20.990400 49.063968 4.442943 -149.456236 56.697810 -120.147020 0.000000 0.000000 0.000000 
-0.001198 0.935103 -0.002563 -0.232260 -5.196118 -0.637061 3.828371 -0.011743 -0.250679 1.564464 -0.479241 6.921793 6.294075 13.970833 7.606289 0.000000 0.000000 0.000000 -6.650114 0.344244 -2.921383 2.692561 -0.070614 8.376509 -3.272662 -10.559821 7.408138 0.000000 0.000000 0.000000 -1.000028 0.086005 -2.281702 -2.295096 1.076733 -2.001327 1.093039 0.472556 10.540519 6.740750 -3.899301 -12.549654 0.000000 0.000000 0.000000 -22.687700 -8.896118 4.025032 -61.774467 -2.714939 -6.782829 4.598177 -43.180774 0.653369 0.000000 0.000000 0.000000 5.595633 19.888123 7.245732 22.358017 51.994689 5.441064 -144.414192 56.182971 -111.827505 0.000000 0.000000 0.000000 
-0.001091 0.935181 -0.003106 -0.278324 -5.269145 -0.739009 3.975030 -0.005098 -0.182870 1.379272 -0.447251 6.966193 6.310559 13.997628 7.613576 0.000000 0.000000 0.000000 -6.491131 0.339119 -2.860075 2.483616 -0.034226 8.386667 -3.237622 -10.499910 7.426633 0.000000 0.000000 0.000000 -1.179112 0.079102 -2.149273 -2.058478 0.962252 -2.487835 1.143832 0.259320 10.705556 6.825681 -3.867856 -13.424226 0.000000 0.000000 0.000000 -22.977503 -8.857077 4.107388 -61.863782 -3.008690 -6.667825 5.130562 -43.606290 0.501245 0.000000 0.000000 0.000000 5.193078 20.108093 7.263891 22.763292 54.007361 5.920662 -138.632217 54.970604 -102.130146 0.000000 0.000000 0.000000 
-0.000839 0.935427 -0.003604 -0.357542 -5.593079 -0.880261 4.067368 -0.009935 -0.349638 1.271613 -0.447700 7.587985 6.460803 14.254981 7.742693 0.000000 0.000000 0.000000 -6.409337 0.348608 -3.053762 2.425079 -0.005988 8.842854 -3.092552 -10.247288 7.484298 0.000000 0.000000 0.000000 -1.024944 0.075170 -1.995410 -2.104464 0.977087 -2.831644 1.360274 0.169632 10.980493 7.130524 -4.073254 -13.704406 0.000000 0.000000 0.000000 -23.180795 -8.969770 4.295822 -61.580896 -3.189092 -6.595285 4.640388 -43.797333 0.745214 0.000000 0.000000 0.000000 4.883699 19.997409 7.157232 22.477151 55.693293 6.023128 -132.552541 54.107851 -92.991406 0.000000 0.000000 0.000000 
-0.000287 0.935440 -0.003936 -0.371934 -5.815525 -0.925001 4.116170 -0.014105 -0.471776 1.103502 -0.425326 7.919975 6.567783 14.433433 7.771529 0.000000 0.000000 0.000000 -6.351424 0.360625 -3.290613 2.262718 0.037877 9.233956 -3.012296 -10.099835 7.477566 0.000000 0.000000 0.000000 -0.769796 0.076685 -1.966657 -2.054036 0.952868 -2.790168 1.268627 -0.138150 10.831374 6.980044 -4.053586 -13.386687 0.000000 0.000000 0.000000 -23.187016 -9.044079 4.470371 -60.855519 -3.175001 -6.540618 3.684913 -43.344176 1.133932 0.000000 0.000000 0.000000 4.470728 20.189323 7.149333 21.012031 56.260691 5.384731 -126.796663 52.531506 -84.039548 0.000000 0.000000 0.000000 
0.000502 0.935758 -0.004022 -0.421977 -6.229401 -0.832177 4.053584 -0.010872 -0.452394 1.124394 -0.422402 7.826139 6.758208 14.757876 7.951901 0.000000 0.000000 0.000000 -6.232243 0.382665 -3.648723 2.007059 0.099778 9.532431 -2.836245 -9.807818 7.577287 0.000000 0.000000 0.000000 -0.373499 0.088318 -2.134964 -2.127256 0.982957 -2.733031 1.308245 -0.201685 10.684957 7.112894 -4.165969 -13.351013 0.000000 0.000000 0.000000 -23.182582 -9.394307 4.768309 -59.597016 -2.684541 -6.667637 2.759186 -42.770973 1.461421 0.000000 0.000000 0.000000 4.469904 19.755262 6.948553 18.755998 56.088195 4.274301 -122.516645 50.606446 -76.770177 0.000000 0.000000 0.000000 
0.001473 0.936044 -0.003879 -0.410226 -6.455531 -0.836501 3.853929 -0.015235 -0.521520 1.277101 -0.455945 8.025504 6.877541 14.961657 8.086743 0.000000 0.000000 0.000000 -6.353895 0.393047 -3.789666 2.053357 0.101514 9.704446 -2.715977 -9.621330 7.698907 0.000000 0.000000 0.000000 -0.087489 0.092076 -2.140242 -2.177802 1.003213 -2.786911 1.282635 -0.591495 10.631986 7.036860 -4.197548 -13.091059 0.000000 0.000000 0.000000 -23.395250 -9.257667 4.868068 -58.140549 -2.124809 -6.830531 1.901187 -42.493220 1.808118 0.000000 0.000000 0.000000 4.728640 19.831317 6.940215 16.953893 54.800580 3.255221 -120.332699 48.702752 -72.210314 0.000000 0.000000 0.000000 
0.002512 0.936317 -0.003660 -0.375985 -6.590486 -0.795482 3.753016 -0.005450 -0.356615 1.235609 -0.436154 7.697969 6.927259 15.046962 8.162338 0.000000 0.000000 0.000000 -6.447658 0.395603 -3.769246 2.006698 0.105778 9.538648 -2.629021 -9.496224 7.820318 0.000000 0.000000 0.000000 -0.002318 0.094854 -2.176519 -2.168171 1.001142 -2.540568 1.475096 -0.761717 10.319345 6.743116 -4.041933 -12.877677 0.000000 0.000000 0.000000 -23.399779 -8.925236 4.744870 -57.386233 -1.425802 -7.069590 1.024455 -41.994049 2.115710 0.000000 0.000000 0.000000 5.185741 19.404757 6.770223 16.513114 53.462638 2.935214 -119.261632 47.789721 -70.080515 0.000000 0.000000 0.000000 
